<?xml version="1.0" standalone="no"?>
<!DOCTYPE svg PUBLIC "-//W3C//DTD SVG 20010904//EN"
 "http://www.w3.org/TR/2001/REC-SVG-20010904/DTD/svg10.dtd">
<svg version="1.0" xmlns="http://www.w3.org/2000/svg"
 width="562.000000pt" height="562.000000pt" viewBox="0 0 562.000000 562.000000"
 preserveAspectRatio="xMidYMid meet">
<metadata>
Created by potrace 1.11, written by Peter Selinger 2001-2013
</metadata>
<g transform="translate(0.000000,562.000000) scale(0.100000,-0.100000)"
fill="#000000" stroke="none">
<path d="M1460 4652 c-155 -20 -293 -78 -382 -160 l-28 -25 250 -150 250 -150
54 17 c93 30 193 4 274 -69 107 -96 110 -231 6 -296 -58 -36 -168 -34 -242 4
-93 48 -151 130 -152 212 0 43 1 42 -80 87 -25 14 -132 77 -237 141 l-193 116
-20 -40 c-60 -117 -74 -272 -38 -403 53 -193 192 -376 379 -501 68 -45 144
-88 179 -100 3 -1 17 -7 32 -13 32 -13 150 -49 193 -58 67 -15 280 -14 345 1
77 18 165 51 202 77 14 10 29 18 32 18 10 0 32 19 92 78 71 72 114 147 141
253 12 47 10 191 -4 250 -42 182 -157 353 -328 489 -33 26 -73 55 -90 64 -16
9 -43 25 -60 34 -33 20 -152 72 -175 77 -8 2 -51 13 -95 25 -74 19 -238 31
-305 22z"/>
<path d="M3118 4504 c-211 -49 -334 -215 -327 -440 2 -62 28 -182 48 -222 74
-148 118 -211 215 -307 191 -190 418 -291 646 -287 301 5 483 224 436 522 -20
123 -101 288 -196 399 l-20 23 -58 -48 c-31 -27 -59 -51 -62 -54 -3 -3 -27
-23 -55 -45 -90 -72 -89 -71 -71 -116 34 -84 10 -158 -58 -184 -141 -54 -331
98 -313 251 11 97 117 132 232 77 l33 -16 132 108 c128 104 131 108 113 127
-24 27 -136 99 -210 137 -149 74 -353 106 -485 75z"/>
<path d="M2758 3615 c12 -230 -122 -444 -333 -535 -57 -24 -184 -58 -208 -54
-9 1 -15 -1 -12 -5 2 -5 33 -11 68 -15 36 -3 105 -20 156 -37 88 -29 223 -94
229 -111 2 -4 8 -8 13 -8 18 0 145 -107 203 -172 32 -34 75 -90 97 -123 43
-64 114 -207 121 -240 2 -11 3 41 2 115 -2 148 12 216 71 330 56 110 209 232
320 255 17 3 37 8 45 10 8 2 26 4 39 4 39 1 20 8 -42 15 -173 20 -379 129
-533 281 -102 101 -167 198 -226 335 -14 33 -15 32 -10 -45z"/>
<path d="M3672 2905 c-68 -15 -154 -51 -193 -81 -106 -83 -186 -210 -214 -341
-14 -68 -15 -262 0 -328 9 -42 76 -238 85 -250 4 -5 20 -32 35 -60 97 -176
280 -352 462 -444 135 -68 319 -100 443 -78 61 11 152 46 202 78 51 33 132
117 160 166 l17 29 -87 65 c-48 36 -153 116 -234 177 l-147 112 -41 -21 c-174
-91 -415 179 -326 363 64 134 276 96 372 -67 29 -51 37 -79 43 -161 1 -12 459
-359 465 -353 2 2 7 20 10 39 40 230 -3 432 -145 680 -29 50 -114 157 -171
213 -136 132 -294 220 -473 262 -56 14 -200 13 -263 0z"/>
<path d="M1860 2877 c-3 -2 -25 -7 -50 -10 -97 -12 -221 -63 -320 -130 -146
-99 -279 -301 -316 -479 -20 -96 -26 -300 -10 -326 2 -4 7 -27 11 -51 10 -67
61 -201 106 -282 57 -100 157 -229 178 -229 4 0 40 39 78 88 39 48 80 97 90
108 10 12 32 39 48 60 17 21 53 65 80 99 28 33 66 79 84 103 l33 42 -22 48
c-23 48 -30 128 -17 187 11 49 61 108 116 137 99 52 238 23 320 -67 131 -144
103 -344 -58 -417 -54 -25 -105 -25 -193 -3 -16 4 -28 3 -28 -2 0 -4 -10 -19
-23 -33 -12 -14 -72 -88 -132 -165 -61 -77 -140 -178 -177 -224 l-67 -85 37
-23 c20 -12 78 -43 128 -68 331 -164 711 -119 964 113 36 33 79 80 95 104 17
23 32 45 35 48 10 9 62 114 76 155 17 46 23 68 30 110 3 17 9 49 14 73 8 48 6
211 -4 257 -3 17 -8 39 -10 50 -19 101 -75 234 -140 334 -59 91 -69 104 -153
186 -128 127 -294 222 -462 267 -71 18 -328 38 -341 25z"/>
</g>
</svg>
